<svg id="Layer_1" data-name="Layer 1" xmlns="http://www.w3.org/2000/svg" viewBox="0 0 1440 303.8"><title>MRK-6951 LC- 3 images for article about the Internet Protocol (IP)</title><path d="M1426.8,134.5H1239.9a6.6,6.6,0,0,0-6.5,6.6v64a6.5,6.5,0,0,0,6.5,6.5h186.9a6.6,6.6,0,0,0,6.6-6.5v-64A6.7,6.7,0,0,0,1426.8,134.5Zm-.9,69.6h-185V142h185Zm-94.8-19V161a2.2,2.2,0,0,1,2.3-2.2,2.2,2.2,0,0,1,2.2,2.2v24.1a2.3,2.3,0,1,1-4.5,0Zm16.8,0V161a2.2,2.2,0,0,1,2.3-2.2,2.2,2.2,0,0,1,2.2,2.2v24.1a2.3,2.3,0,1,1-4.5,0Zm16.8,0V161a2.2,2.2,0,0,1,2.2-2.2,2.2,2.2,0,0,1,2.3,2.2v24.1a2.3,2.3,0,1,1-4.5,0Zm16.8,0V161a2.2,2.2,0,0,1,2.2-2.2,2.2,2.2,0,0,1,2.3,2.2v24.1a2.3,2.3,0,1,1-4.5,0Zm-117.5,0V161a2.2,2.2,0,0,1,2.3-2.2,2.2,2.2,0,0,1,2.2,2.2v24.1a2.3,2.3,0,1,1-4.5,0Zm16.8,0V161a2.2,2.2,0,0,1,2.2-2.2,2.2,2.2,0,0,1,2.3,2.2v24.1a2.3,2.3,0,1,1-4.5,0Zm16.8,0V161a2.2,2.2,0,0,1,2.2-2.2,2.2,2.2,0,0,1,2.3,2.2v24.1a2.3,2.3,0,1,1-4.5,0Zm16.7,0V161a2.3,2.3,0,0,1,2.3-2.2,2.2,2.2,0,0,1,2.2,2.2v24.1a2.2,2.2,0,0,1-2.2,2.3A2.3,2.3,0,0,1,1314.3,185.1Zm83.9,0V161a2.2,2.2,0,0,1,2.3-2.2,2.2,2.2,0,0,1,2.2,2.2v24.1a2.3,2.3,0,1,1-4.5,0Zm5,37.1a3.8,3.8,0,0,1-3.8,3.7H1267.3a3.8,3.8,0,1,1,0-7.5h132.1A3.8,3.8,0,0,1,1403.2,222.2Z" style="fill:#36393a"/><path d="M189.6,231.2V124.1a8.5,8.5,0,0,0-8.5-8.4H19.7a8.5,8.5,0,0,0-8.4,8.4V231.2H0c1,7.7,6.3,13.6,12.7,13.6H187.3c6.4,0,11.7-5.9,12.7-13.6ZM21,125.4H179.9V231.2H21Z" style="fill:#36393a"/><path d="M1079.5,111.9a34.8,34.8,0,1,0-55,28.4h0a1.6,1.6,0,0,0,.9.3,1.5,1.5,0,0,0,1.5-1.5,1.3,1.3,0,0,0-.6-1.2h0a31.8,31.8,0,1,1,35.4,1h0a1.6,1.6,0,0,0-.7,1.3,1.5,1.5,0,0,0,1.5,1.5,1.1,1.1,0,0,0,.8-.3h0A34.7,34.7,0,0,0,1079.5,111.9Z" style="fill:#36393a"/><path d="M1015.1,156.7h0a1.1,1.1,0,0,0,.8.3,1.5,1.5,0,0,0,1.5-1.5,1.6,1.6,0,0,0-.7-1.3h0a50.7,50.7,0,1,1,56.5-.4,1.5,1.5,0,0,0,.9,2.7,1.1,1.1,0,0,0,.8-.2,53.7,53.7,0,1,0-59.8.4Z" style="fill:#36393a"/><path d="M1046.5,131.1l8,26.9-9.8,9.5-9.6-9.3,7.8-27.1a16.6,16.6,0,0,1-8.4-3.2L996.8,258.2h9.3l1.8-6.2,36.8-30.2,37.5,30.2,1.8,6.2h9.4L1055,127.9A18,18,0,0,1,1046.5,131.1Zm-14.1,36.5,5.9,6.1-11,10.6Zm-20.1,69.2,9.7-33.3,16.1,12.4Zm13.6-40.4,18.8-16.6,17.5,16.6-17.5,13.7Zm51.8,40.4-25.3-20.9,15.4-12.5Zm-15.5-52.5-11.7-10.6,6.8-6.1Z" style="fill:#36393a"/><path d="M1032,113.6a12.7,12.7,0,1,0,12.7-12.7A12.7,12.7,0,0,0,1032,113.6Z" style="fill:#36393a"/><rect x="335" y="62.2" width="521" height="232" style="fill:none;stroke:#36393a;stroke-miterlimit:10;stroke-width:10px"/><path d="M359.1,94.7H359l-6,4.2V96l6-4.3h2.8v22.6h-2.7Z" style="fill:#36393a"/><path d="M367.1,109H370a4.5,4.5,0,0,0,4.7,3.2c3.8,0,5.9-3.4,6-9.4h-.1a6.6,6.6,0,0,1-6.3,3.7,7.2,7.2,0,0,1-7.4-7.5,7.6,7.6,0,0,1,7.9-7.7c4.1,0,8.6,2.8,8.6,11.3s-3.2,12-8.7,12C370.8,114.6,367.8,112.4,367.1,109ZM380,99a5,5,0,0,0-5.1-5.1,5.1,5.1,0,0,0-5.2,5A5.2,5.2,0,0,0,380,99Z" style="fill:#36393a"/><path d="M393.8,91.4c4.2,0,7,2.8,7,6.2s-1.1,4.4-5.2,8.6l-5.4,5.5h11v2.5H386.3v-2l8-8.2c3-3.2,3.7-4.4,3.7-6.3a3.9,3.9,0,0,0-4.2-4c-2.8,0-4.9,1.9-4.9,4.4h-2.7C386.2,94.3,389.5,91.4,393.8,91.4Z" style="fill:#36393a"/><path d="M404.9,112.6a1.8,1.8,0,0,1,3.6,0,1.8,1.8,0,0,1-3.6,0Z" style="fill:#36393a"/><path d="M416.5,94.7h-.1l-6,4.2V96l6-4.3h2.8v22.6h-2.7Z" style="fill:#36393a"/><path d="M424.5,103.4c0-7.6,3.2-12.1,8.7-12.1,3.9,0,6.8,2.3,7.5,5.7h-2.8a4.7,4.7,0,0,0-4.7-3.2c-3.8,0-5.9,3.4-6,9.4h0a6.8,6.8,0,0,1,6.3-3.7A7.3,7.3,0,0,1,441,107c0,4.4-3.3,7.7-8,7.7S424.5,111.8,424.5,103.4Zm13.7,3.7a5.2,5.2,0,0,0-10.3-.1,5.1,5.1,0,0,0,5.1,5.2A5.1,5.1,0,0,0,438.2,107.1Z" style="fill:#36393a"/><path d="M444.5,112.6a1.8,1.8,0,0,1,3.6,0,1.8,1.8,0,0,1-3.6,0Z" style="fill:#36393a"/><path d="M451.7,103c0-7.1,3.1-11.6,8.4-11.6s8.2,4.5,8.2,11.6-3,11.6-8.2,11.6S451.7,110.1,451.7,103Zm13.8,0c0-5.6-2-9.2-5.4-9.2s-5.5,3.7-5.5,9.2,1.9,9.2,5.5,9.2S465.5,108.6,465.5,103Z" style="fill:#36393a"/><path d="M471.2,103c0-7.1,3-11.6,8.3-11.6s8.2,4.5,8.2,11.6-3,11.6-8.2,11.6S471.2,110.1,471.2,103Zm13.7,0c0-5.6-1.9-9.2-5.4-9.2S474,97.5,474,103s1.9,9.2,5.5,9.2S484.9,108.6,484.9,103Z" style="fill:#36393a"/><path d="M490.8,112.6a1.8,1.8,0,0,1,3.6,0,1.8,1.8,0,0,1-3.6,0Z" style="fill:#36393a"/><path d="M502.4,94.7h-.1l-6,4.2V96l6-4.3h2.8v22.6h-2.7Z" style="fill:#36393a"/><path d="M518.2,91.4c4.2,0,7.1,2.8,7.1,6.2s-1.1,4.4-5.3,8.6l-5.3,5.5h11v2.5H510.8v-2l7.9-8.2c3.1-3.2,3.8-4.4,3.8-6.3a4,4,0,0,0-4.3-4,4.5,4.5,0,0,0-4.8,4.4h-2.7C510.7,94.3,513.9,91.4,518.2,91.4Z" style="fill:#36393a"/><path d="M19.8,274.7h-.1l-5.9,4.2V276l6-4.3h2.7v22.6H19.8Z" style="fill:#36393a"/><path d="M27.8,289h2.9a4.5,4.5,0,0,0,4.7,3.2c3.8,0,5.9-3.4,6-9.4h0a6.9,6.9,0,0,1-6.3,3.7,7.3,7.3,0,0,1-7.5-7.5c0-4.4,3.3-7.7,8-7.7s8.5,2.8,8.5,11.3-3.2,12-8.7,12C31.5,294.6,28.5,292.4,27.8,289Zm13-10a5.2,5.2,0,0,0-10.4-.1,4.9,4.9,0,0,0,5.1,5.1A5,5,0,0,0,40.8,279Z" style="fill:#36393a"/><path d="M54.5,271.4c4.2,0,7.1,2.8,7.1,6.2s-1.2,4.4-5.3,8.6l-5.4,5.5h11v2.5H47.1v-2l7.9-8.2c3-3.2,3.8-4.4,3.8-6.3a4,4,0,0,0-4.3-4c-2.8,0-4.9,1.9-4.9,4.4H46.9C46.9,274.3,50.2,271.4,54.5,271.4Z" style="fill:#36393a"/><path d="M65.6,292.6a1.8,1.8,0,0,1,3.6,0,1.8,1.8,0,0,1-3.6,0Z" style="fill:#36393a"/><path d="M77.2,274.7h-.1l-6,4.2V276l6-4.3h2.8v22.6H77.2Z" style="fill:#36393a"/><path d="M85.2,283.4c0-7.6,3.2-12.1,8.8-12.1a7.2,7.2,0,0,1,7.4,5.7H98.6a4.7,4.7,0,0,0-4.7-3.2c-3.7,0-5.9,3.4-6,9.4H88a6.6,6.6,0,0,1,6.3-3.7,7.3,7.3,0,0,1,7.5,7.5,7.7,7.7,0,0,1-8,7.7C89.6,294.7,85.2,291.8,85.2,283.4Zm13.7,3.7a4.9,4.9,0,0,0-5.1-5.1,4.9,4.9,0,0,0-5.2,5,5.1,5.1,0,0,0,5.1,5.2A5.1,5.1,0,0,0,98.9,287.1Z" style="fill:#36393a"/><path d="M105.2,292.6a1.8,1.8,0,0,1,3.6,0,1.8,1.8,0,1,1-3.6,0Z" style="fill:#36393a"/><path d="M112.5,283c0-7.1,3-11.6,8.3-11.6s8.3,4.5,8.3,11.6-3.1,11.6-8.3,11.6S112.5,290.1,112.5,283Zm13.7,0c0-5.6-1.9-9.2-5.4-9.2s-5.5,3.7-5.5,9.2,1.9,9.2,5.5,9.2S126.2,288.6,126.2,283Z" style="fill:#36393a"/><path d="M131.9,283c0-7.1,3.1-11.6,8.3-11.6s8.3,4.5,8.3,11.6-3.1,11.6-8.3,11.6S131.9,290.1,131.9,283Zm13.7,0c0-5.6-1.9-9.2-5.4-9.2s-5.5,3.7-5.5,9.2,2,9.2,5.5,9.2S145.6,288.6,145.6,283Z" style="fill:#36393a"/><path d="M151.5,292.6a1.8,1.8,0,0,1,3.6,0,1.8,1.8,0,0,1-3.6,0Z" style="fill:#36393a"/><path d="M163.1,274.7H163l-6,4.2V276l6-4.3h2.8v22.6h-2.7Z" style="fill:#36393a"/><path d="M179,271.4c4.1,0,7,2.8,7,6.2s-1.1,4.4-5.3,8.6l-5.3,5.5h11v2.5H171.5v-2l8-8.2c3-3.2,3.7-4.4,3.7-6.3a4,4,0,0,0-4.2-4c-2.8,0-4.9,1.9-4.9,4.4h-2.7C171.4,274.3,174.6,271.4,179,271.4Z" style="fill:#36393a"/><path d="M964.1,294.3v-20H957v-2.6h17v2.6h-7.1v20Z" style="fill:#36393a"/><path d="M976.7,271.7h2.7v8.9h.1a5.4,5.4,0,0,1,5.1-2.9c3.6,0,5.8,2.4,5.8,6.1v10.5h-2.8v-10c0-2.6-1.3-4.2-3.8-4.2s-4.4,1.9-4.4,4.7v9.5h-2.7Z" style="fill:#36393a"/><path d="M1007.3,289.6c-.5,2.9-3.3,5-6.8,5s-7.5-3.3-7.5-8.4,2.9-8.5,7.4-8.5,7.1,3.2,7.1,8.2v1H995.8c0,3.1,1.8,5.2,4.8,5.2a4,4,0,0,0,4-2.6Zm-11.5-4.8h8.9c-.1-2.8-1.8-4.7-4.4-4.7S996,282.1,995.8,284.8Z" style="fill:#36393a"/><path d="M1017.2,294.3V271.7h2.8v22.6Z" style="fill:#36393a"/><path d="M1024,278h2.5v2.6h.1a5.5,5.5,0,0,1,5.1-2.9c3.6,0,5.7,2.3,5.7,6v10.6h-2.8V284.2c0-2.6-1.2-4.1-3.7-4.1s-4.2,1.9-4.2,4.6v9.6H1024Z" style="fill:#36393a"/><path d="M1044.4,274.1V278h3.2v2.3h-3.2v9.6c0,1.5.6,2.2,2,2.2h1.1v2.3h-1.7c-3,0-4.1-1.2-4.1-4.3v-9.8h-2.4V278h2.4v-3.9Z" style="fill:#36393a"/><path d="M1063.4,289.6c-.4,2.9-3.2,5-6.7,5s-7.5-3.3-7.5-8.4,2.9-8.5,7.3-8.5,7.1,3.2,7.1,8.2v1H1052c0,3.1,1.8,5.2,4.7,5.2a4.1,4.1,0,0,0,4.1-2.6Zm-11.4-4.8h8.8c0-2.8-1.7-4.7-4.3-4.7S1052.2,282.1,1052,284.8Z" style="fill:#36393a"/><path d="M1066.4,278h2.5v2.7h.1a4,4,0,0,1,3.9-3l1.1.2v2.6l-1.4-.2a3.5,3.5,0,0,0-3.5,3.8v10.2h-2.7Z" style="fill:#36393a"/><path d="M1076.2,278h2.6v2.6h.1a5.5,5.5,0,0,1,5.1-2.9c3.6,0,5.6,2.3,5.6,6v10.6h-2.7V284.2c0-2.6-1.2-4.1-3.7-4.1s-4.2,1.9-4.2,4.6v9.6h-2.8Z" style="fill:#36393a"/><path d="M1106.5,289.6c-.4,2.9-3.2,5-6.7,5s-7.5-3.3-7.5-8.4,2.9-8.5,7.4-8.5,7.1,3.2,7.1,8.2v1h-11.7c0,3.1,1.8,5.2,4.7,5.2a4.1,4.1,0,0,0,4.1-2.6Zm-11.4-4.8h8.8c0-2.8-1.7-4.7-4.3-4.7S1095.3,282.1,1095.1,284.8Z" style="fill:#36393a"/><path d="M1113.1,274.1V278h3.1v2.3h-3.1v9.6c0,1.5.6,2.2,2,2.2h1.1v2.3h-1.7c-3,0-4.1-1.2-4.1-4.3v-9.8h-2.5V278h2.5v-3.9Z" style="fill:#36393a"/><path d="M3.9,21.2c.3,2.4,2.6,3.9,5.8,3.9S15,23.5,15,21.3s-1.2-3.2-4.4-3.8l-2.5-.6c-4.5-1-6.4-3-6.4-6.2S4.9,4.4,9.6,4.4s7.8,2.6,7.9,6.5H14.7c-.3-2.5-2.2-4-5.2-4s-5,1.4-5,3.7,1.3,3,4.3,3.6l2.5.6c4.7,1,6.6,2.9,6.6,6.1s-3.3,6.7-8.3,6.7-8.2-2.5-8.5-6.4Z" style="fill:#36393a"/><path d="M34.2,22.6c-.5,2.9-3.2,5-6.8,5S20,24.3,20,19.2s2.8-8.5,7.3-8.5,7.1,3.2,7.1,8.2v1H22.8c0,3.1,1.8,5.2,4.7,5.2a3.9,3.9,0,0,0,4-2.6ZM22.8,17.8h8.8c-.1-2.8-1.8-4.7-4.3-4.7S22.9,15.1,22.8,17.8Z" style="fill:#36393a"/><path d="M37.1,11h2.6v2.6h.1a5.5,5.5,0,0,1,5.1-2.9c3.6,0,5.6,2.3,5.6,6V27.3H47.8V17.2c0-2.6-1.2-4.1-3.7-4.1s-4.2,1.9-4.2,4.6v9.6H37.1Z" style="fill:#36393a"/><path d="M53.2,19.1c0-5,2.8-8.4,6.9-8.4a5.8,5.8,0,0,1,5.2,3h0v-9H68V27.3H65.5V24.5h-.1a5.7,5.7,0,0,1-5.2,3.1C56,27.6,53.2,24.2,53.2,19.1Zm2.8,0c0,3.7,1.8,6.1,4.7,6.1s4.6-2.4,4.6-6.1-1.8-6-4.6-6S56,15.5,56,19.1Z" style="fill:#36393a"/><path d="M85.2,22.6c-.5,2.9-3.2,5-6.8,5s-7.5-3.3-7.5-8.4,2.9-8.5,7.4-8.5,7.1,3.2,7.1,8.2v1H73.7c0,3.1,1.8,5.2,4.8,5.2a4,4,0,0,0,4-2.6ZM73.7,17.8h8.9c-.1-2.8-1.8-4.7-4.4-4.7S73.9,15.1,73.7,17.8Z" style="fill:#36393a"/><path d="M88.1,11h2.6v2.7h0a4.2,4.2,0,0,1,4-3l1.1.2v2.6l-1.5-.2a3.5,3.5,0,0,0-3.5,3.8V27.3H88.1Z" style="fill:#36393a"/><path d="M103.7,19.1c0-5.1,3.1-8.4,7.6-8.4s7.5,3.3,7.5,8.4-3,8.5-7.5,8.5S103.7,24.3,103.7,19.1Zm12.3,0c0-3.8-1.9-6-4.7-6s-4.8,2.2-4.8,6,1.9,6.1,4.8,6.1S116,23,116,19.1Z" style="fill:#36393a"/><path d="M122.4,13.3h-2.3V11h2.3V9.2c0-3.1,1.4-4.6,4.4-4.6h1.7V6.9h-1.2c-1.5,0-2.2.8-2.2,2.4V11h3.3v2.3h-3.3v14h-2.7Z" style="fill:#36393a"/><path d="M152.6,19.1c0,5.1-2.8,8.5-6.8,8.5a5.6,5.6,0,0,1-5.2-3h-.1v8.1h-2.7V11h2.6v2.8h0a5.8,5.8,0,0,1,5.3-3.1C149.8,10.7,152.6,14.1,152.6,19.1Zm-2.7,0c0-3.6-1.9-6-4.7-6s-4.7,2.4-4.7,6,1.9,6.1,4.7,6.1S149.9,22.8,149.9,19.1Z" style="fill:#36393a"/><path d="M154.7,22.7c0-2.8,2.2-4.6,5.9-4.8l4.7-.2V16.3c0-2-1.3-3.2-3.6-3.2s-3.4,1-3.7,2.6h-2.7c.2-2.8,2.6-5,6.5-5S168,12.8,168,16V27.3h-2.6V24.5h-.1a5.9,5.9,0,0,1-5.2,3.1C156.9,27.6,154.7,25.6,154.7,22.7Zm10.6-1.6V19.8l-4.4.2c-2.2.2-3.4,1.1-3.4,2.7s1.3,2.5,3.2,2.5A4.3,4.3,0,0,0,165.3,21.1Z" style="fill:#36393a"/><path d="M182.3,16.4a4.1,4.1,0,0,0-4.2-3.3c-2.8,0-4.7,2.4-4.7,6s1.9,6.1,4.8,6.1a3.9,3.9,0,0,0,4.1-3.2H185a6.6,6.6,0,0,1-6.9,5.6c-4.5,0-7.5-3.2-7.5-8.5s3-8.4,7.5-8.4,6.5,2.7,6.8,5.7Z" style="fill:#36393a"/><path d="M197.5,11h3.3l-7,7,7.2,9.3h-3.1l-6.1-7.6-1.5,1.4v6.2h-2.7V4.7h2.7V18.2Z" style="fill:#36393a"/><path d="M215.7,22.6c-.5,2.9-3.2,5-6.8,5s-7.5-3.3-7.5-8.4,2.9-8.5,7.4-8.5,7.1,3.2,7.1,8.2v1H204.2c0,3.1,1.8,5.2,4.8,5.2a4,4,0,0,0,4-2.6Zm-11.5-4.8h8.9c-.1-2.8-1.8-4.7-4.4-4.7S204.4,15.1,204.2,17.8Z" style="fill:#36393a"/><path d="M222.2,7.1V11h3.2v2.3h-3.2v9.6c0,1.5.6,2.2,2,2.2h1.1v2.3h-1.7c-3,0-4.1-1.2-4.1-4.3V13.3h-2.4V11h2.4V7.1Z" style="fill:#36393a"/><path d="M1189.6,27.3h-2.8V4.7h8.4c4.4,0,7.2,2.7,7.2,6.7a6.4,6.4,0,0,1-4.5,6.5l5.2,9.4h-3.3l-4.8-8.9h-5.4Zm0-11.4h5.4c2.9,0,4.5-1.6,4.5-4.4s-1.7-4.3-4.6-4.3h-5.3Z" style="fill:#36393a"/><path d="M1219,22.6c-.5,2.9-3.2,5-6.8,5s-7.5-3.3-7.5-8.4,2.9-8.5,7.4-8.5,7.1,3.2,7.1,8.2v1h-11.7c0,3.1,1.9,5.2,4.8,5.2a3.9,3.9,0,0,0,4-2.6Zm-11.5-4.8h8.9c-.1-2.8-1.8-4.7-4.4-4.7S1207.7,15.1,1207.5,17.8Z" style="fill:#36393a"/><path d="M1232.8,16.4a4.1,4.1,0,0,0-4.2-3.3c-2.8,0-4.7,2.4-4.7,6s1.9,6.1,4.7,6.1a4,4,0,0,0,4.2-3.2h2.7a6.6,6.6,0,0,1-6.9,5.6c-4.5,0-7.5-3.2-7.5-8.5s3-8.4,7.5-8.4,6.5,2.7,6.8,5.7Z" style="fill:#36393a"/><path d="M1237.8,6.4a1.7,1.7,0,0,1,1.7-1.7,1.8,1.8,0,0,1,1.7,1.7,1.7,1.7,0,0,1-1.7,1.7A1.6,1.6,0,0,1,1237.8,6.4Zm.3,4.6h2.7V27.3h-2.7Z" style="fill:#36393a"/><path d="M1259.3,19.1c0,5.1-2.8,8.5-6.9,8.5a5.6,5.6,0,0,1-5.1-3h-.1v8.1h-2.7V11h2.6v2.8h0a5.8,5.8,0,0,1,5.3-3.1C1256.5,10.7,1259.3,14.1,1259.3,19.1Zm-2.8,0c0-3.6-1.8-6-4.7-6s-4.6,2.4-4.6,6,1.9,6.1,4.6,6.1S1256.5,22.8,1256.5,19.1Z" style="fill:#36393a"/><path d="M1261.9,6.4a1.7,1.7,0,0,1,1.7-1.7,1.8,1.8,0,0,1,1.7,1.7,1.7,1.7,0,0,1-1.7,1.7A1.6,1.6,0,0,1,1261.9,6.4Zm.3,4.6h2.7V27.3h-2.7Z" style="fill:#36393a"/><path d="M1282,22.6c-.4,2.9-3.2,5-6.7,5s-7.5-3.3-7.5-8.4,2.9-8.5,7.4-8.5,7,3.2,7,8.2v1h-11.6c0,3.1,1.8,5.2,4.7,5.2a4.1,4.1,0,0,0,4.1-2.6Zm-11.4-4.8h8.8c0-2.8-1.7-4.7-4.3-4.7S1270.8,15.1,1270.6,17.8Z" style="fill:#36393a"/><path d="M1285,11h2.5v2.6h.1a5.5,5.5,0,0,1,5.2-2.9c3.5,0,5.6,2.3,5.6,6V27.3h-2.7V17.2c0-2.6-1.3-4.1-3.8-4.1s-4.2,1.9-4.2,4.6v9.6H1285Z" style="fill:#36393a"/><path d="M1305.4,7.1V11h3.2v2.3h-3.2v9.6c0,1.5.7,2.2,2.1,2.2h1.1v2.3h-1.7c-3,0-4.2-1.2-4.2-4.3V13.3h-2.4V11h2.4V7.1Z" style="fill:#36393a"/><path d="M1317.2,19.1c0-5.1,3.1-8.4,7.6-8.4s7.5,3.3,7.5,8.4-3,8.5-7.5,8.5S1317.2,24.3,1317.2,19.1Zm12.3,0c0-3.8-1.8-6-4.7-6s-4.8,2.2-4.8,6,1.9,6.1,4.8,6.1S1329.5,23,1329.5,19.1Z" style="fill:#36393a"/><path d="M1335.9,13.3h-2.3V11h2.3V9.2c0-3.1,1.5-4.6,4.5-4.6h1.6V6.9h-1.2c-1.5,0-2.2.8-2.2,2.4V11h3.3v2.3h-3.3v14h-2.7Z" style="fill:#36393a"/><path d="M1366.2,19.1c0,5.1-2.8,8.5-6.9,8.5a5.7,5.7,0,0,1-5.2-3h-.1v8.1h-2.7V11h2.6v2.8h.1a5.6,5.6,0,0,1,5.2-3.1C1363.3,10.7,1366.2,14.1,1366.2,19.1Zm-2.8,0c0-3.6-1.8-6-4.7-6s-4.7,2.4-4.7,6,1.9,6.1,4.7,6.1S1363.4,22.8,1363.4,19.1Z" style="fill:#36393a"/><path d="M1368.2,22.7c0-2.8,2.2-4.6,5.9-4.8l4.7-.2V16.3c0-2-1.3-3.2-3.6-3.2s-3.4,1-3.7,2.6h-2.7c.2-2.8,2.6-5,6.5-5s6.2,2.1,6.2,5.3V27.3h-2.6V24.5h0a6.2,6.2,0,0,1-5.3,3.1C1370.4,27.6,1368.2,25.6,1368.2,22.7Zm10.6-1.6V19.8l-4.4.2c-2.2.2-3.4,1.1-3.4,2.7s1.3,2.5,3.2,2.5A4.3,4.3,0,0,0,1378.8,21.1Z" style="fill:#36393a"/><path d="M1395.8,16.4a4.1,4.1,0,0,0-4.2-3.3c-2.8,0-4.7,2.4-4.7,6s2,6.1,4.8,6.1a3.9,3.9,0,0,0,4.1-3.2h2.7c-.4,3.3-3.2,5.6-6.8,5.6s-7.5-3.2-7.5-8.5,2.9-8.4,7.4-8.4a6.6,6.6,0,0,1,6.9,5.7Z" style="fill:#36393a"/><path d="M1411,11h3.3l-7,7,7.2,9.3h-3.1l-6-7.6-1.6,1.4v6.2h-2.7V4.7h2.7V18.2Z" style="fill:#36393a"/><path d="M1429.2,22.6c-.5,2.9-3.2,5-6.8,5s-7.5-3.3-7.5-8.4,2.9-8.5,7.4-8.5,7.1,3.2,7.1,8.2v1h-11.7c0,3.1,1.9,5.2,4.8,5.2a3.9,3.9,0,0,0,4-2.6Zm-11.4-4.8h8.8c-.1-2.8-1.8-4.7-4.4-4.7S1417.9,15.1,1417.8,17.8Z" style="fill:#36393a"/><path d="M1435.7,7.1V11h3.2v2.3h-3.2v9.6c0,1.5.6,2.2,2,2.2h1.2v2.3h-1.8c-2.9,0-4.1-1.2-4.1-4.3V13.3h-2.4V11h2.4V7.1Z" style="fill:#36393a"/><path d="M486.9,187.1v-20h-7.1v-2.6h17v2.6h-7.1v20Z" style="fill:#36393a"/><path d="M494.3,179c0-5.2,3-8.4,7.5-8.4s7.6,3.2,7.6,8.4-3.1,8.4-7.6,8.4S494.3,184.1,494.3,179Zm12.3,0c0-3.9-1.9-6.1-4.8-6.1s-4.7,2.2-4.7,6.1,1.9,6,4.7,6S506.6,182.8,506.6,179Z" style="fill:#36393a"/><path d="M512.6,172.9a1.8,1.8,0,0,1,3.6,0,1.8,1.8,0,0,1-3.6,0Zm0,12.6a1.8,1.8,0,0,1,3.6,0,1.8,1.8,0,0,1-3.6,0Z" style="fill:#36393a"/><path d="M532.6,167.5h-.1l-5.9,4.2v-2.8l6-4.4h2.7v22.6h-2.7Z" style="fill:#36393a"/><path d="M540.6,181.9h2.9c.6,2,2.4,3.1,4.7,3.1,3.9,0,5.9-3.4,6-9.4h0a6.6,6.6,0,0,1-6.3,3.7,7.3,7.3,0,0,1-7.5-7.4,7.7,7.7,0,0,1,8-7.8c4,0,8.5,2.8,8.5,11.3s-3.2,12.1-8.7,12.1C544.3,187.5,541.3,185.2,540.6,181.9Zm13-10.1a5.2,5.2,0,0,0-10.4,0,4.9,4.9,0,0,0,5.2,5A5,5,0,0,0,553.6,171.8Z" style="fill:#36393a"/><path d="M567.3,164.2c4.2,0,7.1,2.8,7.1,6.2s-1.2,4.4-5.3,8.6l-5.4,5.5h11.1v2.5H559.9v-2l7.9-8.2c3.1-3.2,3.8-4.4,3.8-6.3a4,4,0,0,0-4.3-4,4.5,4.5,0,0,0-4.8,4.5h-2.8C559.7,167.1,563,164.2,567.3,164.2Z" style="fill:#36393a"/><path d="M578.4,185.5a1.8,1.8,0,1,1,3.6,0,1.8,1.8,0,0,1-3.6,0Z" style="fill:#36393a"/><path d="M585.7,175.8c0-7.1,3.1-11.6,8.3-11.6s8.3,4.5,8.3,11.6-3.1,11.7-8.3,11.7S585.7,182.9,585.7,175.8Zm13.8,0c0-5.5-2-9.2-5.5-9.2s-5.5,3.7-5.5,9.2,2,9.2,5.5,9.2S599.5,181.4,599.5,175.8Z" style="fill:#36393a"/><path d="M605.1,175.8c0-7.1,3.1-11.6,8.3-11.6s8.3,4.5,8.3,11.6-3,11.7-8.3,11.7S605.1,182.9,605.1,175.8Zm13.8,0c0-5.5-2-9.2-5.5-9.2s-5.5,3.7-5.5,9.2,2,9.2,5.5,9.2S618.9,181.4,618.9,175.8Z" style="fill:#36393a"/><path d="M624.8,185.5a1.7,1.7,0,0,1,1.7-1.8,1.8,1.8,0,0,1,1.8,1.8,1.7,1.7,0,0,1-1.8,1.7A1.6,1.6,0,0,1,624.8,185.5Z" style="fill:#36393a"/><path d="M632,175.8c0-7.1,3.1-11.6,8.3-11.6s8.3,4.5,8.3,11.6-3,11.7-8.3,11.7S632,182.9,632,175.8Zm13.8,0c0-5.5-2-9.2-5.5-9.2s-5.5,3.7-5.5,9.2,2,9.2,5.5,9.2S645.8,181.4,645.8,175.8Z" style="fill:#36393a"/><path d="M651.4,175.8c0-7.1,3.1-11.6,8.3-11.6s8.3,4.5,8.3,11.6-3,11.7-8.3,11.7S651.4,182.9,651.4,175.8Zm13.8,0c0-5.5-2-9.2-5.5-9.2s-5.5,3.7-5.5,9.2,2,9.2,5.5,9.2S665.2,181.4,665.2,175.8Z" style="fill:#36393a"/><path d="M671.1,185.5a1.7,1.7,0,0,1,1.7-1.8,1.8,1.8,0,0,1,1.8,1.8,1.7,1.7,0,0,1-1.8,1.7A1.6,1.6,0,0,1,671.1,185.5Z" style="fill:#36393a"/><path d="M689.1,167.1H677v-2.5h14.9v2.6l-10,20h-3Z" style="fill:#36393a"/><path d="M695.2,180.9h2.7a4.8,4.8,0,0,0,5,4.1,5.2,5.2,0,1,0,.1-10.3,5.2,5.2,0,0,0-4.9,2.7h-2.5l1.1-12.9h12.9V167H699l-.7,7.6h0a6.3,6.3,0,0,1,5.2-2.3,7.2,7.2,0,0,1,7.4,7.5c0,4.5-3.3,7.7-8,7.7S695.4,184.8,695.2,180.9Z" style="fill:#36393a"/><path d="M1247.4,274.7h0l-6,4.2V276l6-4.3h2.8v22.6h-2.8Z" style="fill:#36393a"/><path d="M1255.5,289h2.8a4.6,4.6,0,0,0,4.8,3.2c3.8,0,5.9-3.4,6-9.4h-.1a6.6,6.6,0,0,1-6.3,3.7,7.3,7.3,0,0,1-7.5-7.5,7.7,7.7,0,0,1,8-7.7c4.1,0,8.6,2.8,8.6,11.3s-3.2,12-8.7,12C1259.2,294.6,1256.1,292.4,1255.5,289Zm12.9-10a5,5,0,0,0-5.1-5.1,5.1,5.1,0,0,0-5.2,5,5.2,5.2,0,0,0,10.3.1Z" style="fill:#36393a"/><path d="M1282.2,271.4c4.1,0,7,2.8,7,6.2s-1.1,4.4-5.3,8.6l-5.3,5.5h11v2.5h-14.9v-2l8-8.2c3-3.2,3.7-4.4,3.7-6.3a3.9,3.9,0,0,0-4.2-4c-2.8,0-4.9,1.9-4.9,4.4h-2.7C1274.6,274.3,1277.8,271.4,1282.2,271.4Z" style="fill:#36393a"/><path d="M1293.3,292.6a1.7,1.7,0,0,1,1.8-1.7,1.6,1.6,0,0,1,1.7,1.7,1.7,1.7,0,0,1-1.7,1.8A1.8,1.8,0,0,1,1293.3,292.6Z" style="fill:#36393a"/><path d="M1300.5,283c0-7.1,3.1-11.6,8.3-11.6s8.3,4.5,8.3,11.6-3,11.6-8.3,11.6S1300.5,290.1,1300.5,283Zm13.8,0c0-5.6-2-9.2-5.5-9.2s-5.4,3.7-5.4,9.2,1.9,9.2,5.4,9.2S1314.3,288.6,1314.3,283Z" style="fill:#36393a"/><path d="M1319.9,283c0-7.1,3.1-11.6,8.4-11.6s8.2,4.5,8.2,11.6-3,11.6-8.2,11.6S1319.9,290.1,1319.9,283Zm13.8,0c0-5.6-2-9.2-5.4-9.2s-5.5,3.7-5.5,9.2,1.9,9.2,5.5,9.2S1333.7,288.6,1333.7,283Z" style="fill:#36393a"/><path d="M1339.6,292.6a1.8,1.8,0,0,1,3.6,0,1.8,1.8,0,0,1-3.6,0Z" style="fill:#36393a"/><path d="M1346.8,283c0-7.1,3.1-11.6,8.4-11.6s8.2,4.5,8.2,11.6-3,11.6-8.2,11.6S1346.8,290.1,1346.8,283Zm13.8,0c0-5.6-2-9.2-5.4-9.2s-5.5,3.7-5.5,9.2,1.9,9.2,5.5,9.2S1360.6,288.6,1360.6,283Z" style="fill:#36393a"/><path d="M1366.3,283c0-7.1,3-11.6,8.3-11.6s8.2,4.5,8.2,11.6-3,11.6-8.2,11.6S1366.3,290.1,1366.3,283Zm13.7,0c0-5.6-1.9-9.2-5.4-9.2s-5.5,3.7-5.5,9.2,1.9,9.2,5.5,9.2S1380,288.6,1380,283Z" style="fill:#36393a"/><path d="M1385.9,292.6a1.8,1.8,0,0,1,3.6,0,1.8,1.8,0,1,1-3.6,0Z" style="fill:#36393a"/><path d="M1404,274.3h-12.2v-2.5h15v2.6l-10.1,20h-2.9Z" style="fill:#36393a"/><path d="M1410,288.1h2.8c.2,2.4,2.3,4.1,5,4.1a5.2,5.2,0,1,0,0-10.3,5.5,5.5,0,0,0-4.9,2.7h-2.5l1.2-12.9h12.9v2.5h-10.6l-.8,7.6h.1a6.1,6.1,0,0,1,5.1-2.3,7.2,7.2,0,0,1,7.5,7.4c0,4.6-3.4,7.7-8.1,7.7S1410.2,292,1410,288.1Z" style="fill:#36393a"/><rect x="776" y="77.2" width="60" height="60" style="fill:#36393a"/><line x1="186" y1="176.2" x2="305.6" y2="176.2" style="fill:none;stroke:#36393a;stroke-miterlimit:10;stroke-width:10px"/><polygon points="285.7 193.2 302.6 176.2 285.7 159.3 300 159.3 317 176.2 300 193.2 285.7 193.2" style="fill:#36393a"/><line x1="856" y1="176.2" x2="975.6" y2="176.2" style="fill:none;stroke:#36393a;stroke-miterlimit:10;stroke-width:10px"/><polygon points="955.7 193.2 972.6 176.2 955.7 159.3 970 159.3 987 176.2 970 193.2 955.7 193.2" style="fill:#36393a"/><line x1="1065" y1="176.2" x2="1184.6" y2="176.2" style="fill:none;stroke:#36393a;stroke-miterlimit:10;stroke-width:10px"/><polygon points="1164.7 193.2 1181.6 176.2 1164.7 159.3 1179 159.3 1196 176.2 1179 193.2 1164.7 193.2" style="fill:#36393a"/><path d="M682,96.2c4.6-5.8,12.2-5.8,16.8,0l.9,1c4.6,5.8,12.1,5.8,16.8,0l1-1.3c4.7-5.7,12.2-5.7,16.8,0h0c4.7,5.7,12.2,5.7,16.8,0l1.1-1.3c4.6-5.8,12.2-5.8,16.8,0" style="fill:none;stroke:#404242;stroke-miterlimit:10;stroke-width:2px"/><path d="M682,104.8c4.6-5.8,12.2-5.8,16.8,0l.9,1c4.6,5.7,12.1,5.7,16.8,0l1-1.3c4.7-5.7,12.2-5.7,16.8,0h0c4.7,5.7,12.2,5.7,16.8,0l1.1-1.3c4.6-5.8,12.2-5.8,16.8,0" style="fill:none;stroke:#404242;stroke-miterlimit:10;stroke-width:2px"/><path d="M682,113.4c4.6-5.8,12.2-5.8,16.8,0l.9,1c4.6,5.7,12.1,5.7,16.8,0l1-1.3c4.7-5.7,12.2-5.7,16.8,0h0c4.7,5.7,12.2,5.7,16.8,0l1.1-1.3c4.6-5.8,12.2-5.8,16.8,0" style="fill:none;stroke:#404242;stroke-miterlimit:10;stroke-width:2px"/><path d="M682,121.9c4.6-5.7,12.2-5.7,16.8,0l.9,1.1c4.6,5.7,12.1,5.7,16.8,0l1-1.3c4.7-5.8,12.2-5.8,16.8,0h0c4.7,5.7,12.2,5.7,16.8,0l1.1-1.4c4.6-5.7,12.2-5.7,16.8,0" style="fill:none;stroke:#404242;stroke-miterlimit:10;stroke-width:2px"/></svg>